<?xml version='1.0' encoding='iso-8859-1'?>
<svg version="1.1" xmlns="http://www.w3.org/2000/svg" viewBox="0 0 255.5 255.5" xmlns:xlink="http://www.w3.org/1999/xlink" enable-background="new 0 0 255.5 255.5">
  <g>
    <path d="m210.582,139.5c0-45.563-36.937-82.5-82.5-82.5s-82.5,36.937-82.5,82.5c0,27.816 13.781,52.399 34.873,67.344-10.438,2.807-18.123,12.582-18.123,23.906 0,13.531 10.969,24.75 24.5,24.75h82.5c13.531,0 24.5-11.219 24.5-24.75 0-11.324-7.685-20.975-18.123-23.781 21.092-14.945 34.873-39.653 34.873-67.469zm-82.5-33c18.226,0 33,14.774 33,33s-14.774,33-33,33-33-14.774-33-33 14.774-33 33-33z"/>
    <circle cx="128.082" cy="139.5" r="8.25"/>
    <path d="m127.749,41c4.418,0 8-3.582 8-8v-25c0-4.418-3.582-8-8-8-4.418,0-8,3.582-8,8v25c0,4.418 3.582,8 8,8z"/>
    <path d="m52.501,71.529c2.048,0 4.095-0.781 5.657-2.343 3.124-3.125 3.124-8.189 0-11.314l-17.678-17.678c-3.125-3.123-8.189-3.123-11.314,0-3.124,3.125-3.124,8.189 0,11.314l17.678,17.678c1.562,1.562 3.609,2.343 5.657,2.343z"/>
    <path d="m226.334,40.194c-3.125-3.123-8.189-3.123-11.314,0l-17.678,17.678c-3.124,3.125-3.124,8.189 0,11.314 1.563,1.562 3.609,2.343 5.657,2.343 2.048,0 4.095-0.781 5.657-2.343l17.678-17.678c3.124-3.124 3.124-8.189-2.84217e-14-11.314z"/>
  </g>
</svg>
