<?xml version="1.0" encoding="iso-8859-1"?>
<!-- Generator: Adobe Illustrator 18.1.1, SVG Export Plug-In . SVG Version: 6.00 Build 0)  -->
<svg version="1.1" id="Capa_1" xmlns="http://www.w3.org/2000/svg" xmlns:xlink="http://www.w3.org/1999/xlink" x="0px" y="0px"
	 viewBox="0 0 255.636 255.636" style="enable-background:new 0 0 255.636 255.636;" xml:space="preserve">
<g>
	<g>
		<path style="fill:#010002;" d="M58.747,99.441c1.316-0.604,2.654-1.343,4.117-2.083c2.899-1.501,6.097-3.214,9.774-4.688
			c1.795-0.772,3.671-1.577,5.608-2.41c1.985-0.68,4.041-1.376,6.152-2.099c2.268-0.941,4.716-1.594,7.218-2.235
			c-3.247,5.836-5.113,12.548-5.113,19.689c0,22.414,18.237,40.646,40.646,40.646s40.646-18.232,40.646-40.646
			c0-7.152-1.871-13.87-5.129-19.717c2.507,0.642,4.966,1.295,7.245,2.241c2.11,0.718,4.166,1.42,6.152,2.099
			c1.936,0.838,3.807,1.643,5.608,2.415c3.699,1.496,6.826,3.155,9.698,4.64c1.447,0.729,2.779,1.458,4.096,2.061
			c1.246,0.761,2.388,1.458,3.421,2.089c4.139,2.518,6.63,3.818,6.63,3.818s-1.545-2.35-4.465-6.211
			c-0.734-0.963-1.55-2.029-2.437-3.187c-0.995-1.099-2.159-2.203-3.383-3.437c-2.442-2.475-5.265-5.363-8.757-7.767
			c-1.719-1.295-3.508-2.649-5.357-4.047c-2.002-1.175-4.074-2.393-6.201-3.639c-4.221-2.671-9.181-4.378-14.185-6.549
			c-5.2-1.517-10.563-3.427-16.263-4.155c-5.629-1.229-11.487-1.305-17.313-1.648c-5.825,0.343-11.683,0.408-17.313,1.637
			c-5.706,0.713-11.063,2.643-16.268,4.15c-5.009,2.17-9.97,3.878-14.191,6.549c-2.127,1.251-4.199,2.464-6.201,3.639
			c-1.849,1.398-3.639,2.752-5.357,4.052c-3.514,2.42-6.266,5.26-8.686,7.718c-1.207,1.229-2.371,2.322-3.361,3.421
			c-0.914,1.18-1.746,2.268-2.502,3.247c-2.981,3.922-4.476,6.239-4.476,6.239s2.535-1.333,6.614-3.796
			C56.403,100.855,57.524,100.181,58.747,99.441z M127.138,129.943c-13.413,0-24.329-10.911-24.329-24.329
			s10.916-24.329,24.329-24.329s24.329,10.911,24.329,24.329S140.551,129.943,127.138,129.943z"/>
		<path style="fill:#010002;" d="M46.232,190.366h50.817l-3.807,38.073H70.708c-4.504,0-8.159,3.65-8.159,8.159
			s3.655,8.159,8.159,8.159h29.915h59.83c0.044,0.005,0.087,0,0.109,0h24.367c4.504,0,8.159-3.65,8.159-8.159
			s-3.655-8.159-8.159-8.159h-17.09l-3.813-38.073h45.378c25.493,0,46.232-20.739,46.232-46.232V57.109
			c0-25.493-20.739-46.232-46.232-46.232H46.232C20.739,10.877,0,31.616,0,57.109v87.025C0,169.627,20.739,190.366,46.232,190.366z
			 M151.44,228.439h-41.805l3.807-38.073h34.185L151.44,228.439z M16.317,57.109c0-16.497,13.424-29.915,29.915-29.915h163.172
			c16.491,0,29.915,13.418,29.915,29.915v87.025c0,16.497-13.424,29.915-29.915,29.915h-54.391h-48.952h-59.83
			c-16.491,0-29.915-13.418-29.915-29.915V57.109z"/>
	</g>
</g>
<g>
</g>
<g>
</g>
<g>
</g>
<g>
</g>
<g>
</g>
<g>
</g>
<g>
</g>
<g>
</g>
<g>
</g>
<g>
</g>
<g>
</g>
<g>
</g>
<g>
</g>
<g>
</g>
<g>
</g>
</svg>
